<?xml version="1.0" encoding="utf-8"?>
<!DOCTYPE svg PUBLIC "-//W3C//DTD SVG 1.1//EN" "http://www.w3.org/Graphics/SVG/1.1/DTD/svg11.dtd">
<!-- exported from Silhouette Studio® Business Edition V4.5.770ssbe -->
<svg version="1.1" xmlns="http://www.w3.org/2000/svg" xmlns:xlink="http://www.w3.org/1999/xlink" width="7.408333mm" height="7.055555mm" viewBox="0 0 7.408333 7.055555">
<defs>
<path id="path_a91e49dc5d7871efe1a31e10fdef00f2" d="M 6.667503 4.938889 L 5.926666 4.938889 C 5.517357 4.938889 5.185829 5.254623 5.185829 5.644447 L 5.185829 6.349998 C 5.185829 6.739822 5.517357 7.055557 5.926666 7.055557 L 6.667503 7.055557 C 7.076813 7.055557 7.408333 6.739822 7.408333 6.349998 L 7.408333 5.644447 C 7.408333 5.254623 7.076813 4.938889 6.667503 4.938889 L 6.667503 4.938889 Z M 4.074585 4.938889 L 3.333748 4.938889 C 2.924438 4.938889 2.592918 5.254623 2.592918 5.644447 L 2.592918 6.349998 C 2.592918 6.739822 2.924438 7.055557 3.333748 7.055557 L 4.074585 7.055557 C 4.483894 7.055557 4.815414 6.739822 4.815414 6.349998 L 4.815414 5.644447 C 4.815414 5.254623 4.483894 4.938889 4.074585 4.938889 L 4.074585 4.938889 Z M 1.481667 4.938889 L 0.7408295 4.938889 C 0.3315201 4.938889 -1.703974e-8 5.254623 0 5.644447 L 0 6.349998 C 1.703974e-8 6.739822 0.3315201 7.055557 0.7408295 7.055557 L 1.481667 7.055557 C 1.890976 7.055557 2.222496 6.739822 2.222496 6.349998 L 2.222496 5.644447 C 2.222496 5.254623 1.890976 4.938889 1.481667 4.938889 L 1.481667 4.938889 Z M 6.667503 2.469444 L 5.926666 2.469444 C 5.517357 2.469444 5.185829 2.785179 5.185829 3.175003 L 5.185829 3.880554 C 5.185829 4.270378 5.517357 4.586113 5.926666 4.586113 L 6.667503 4.586113 C 7.076813 4.586113 7.408333 4.270378 7.408333 3.880554 L 7.408333 3.175003 C 7.408333 2.785179 7.076813 2.469444 6.667503 2.469444 L 6.667503 2.469444 Z M 4.074585 2.469444 L 3.333748 2.469444 C 2.924438 2.469444 2.592918 2.785179 2.592918 3.175003 L 2.592918 3.880554 C 2.592918 4.270378 2.924438 4.586113 3.333748 4.586113 L 4.074585 4.586113 C 4.483894 4.586113 4.815414 4.270378 4.815414 3.880554 L 4.815414 3.175003 C 4.815414 2.785179 4.483894 2.469444 4.074585 2.469444 L 4.074585 2.469444 Z M 1.481667 2.469444 L 0.7408295 2.469444 C 0.3315201 2.469444 -1.703974e-8 2.785179 0 3.175003 L 0 3.880554 C 1.703974e-8 4.270378 0.3315201 4.586113 0.7408295 4.586113 L 1.481667 4.586113 C 1.890976 4.586113 2.222496 4.270378 2.222496 3.880554 L 2.222496 3.175003 C 2.222496 2.785179 1.890976 2.469444 1.481667 2.469444 L 1.481667 2.469444 Z M 6.667503 0 L 5.926666 0 C 5.517357 0 5.185829 0.3157349 5.185829 0.7055588 L 5.185829 1.41111 C 5.185829 1.800934 5.517357 2.116669 5.926666 2.116669 L 6.667503 2.116669 C 7.076813 2.116669 7.408333 1.800934 7.408333 1.41111 L 7.408333 0.7055588 C 7.408333 0.3157349 7.076813 0 6.667503 0 L 6.667503 0 Z M 4.074585 0 L 3.333748 0 C 2.924438 0 2.592918 0.3157349 2.592918 0.7055588 L 2.592918 1.41111 C 2.592918 1.800934 2.924438 2.116669 3.333748 2.116669 L 4.074585 2.116669 C 4.483894 2.116669 4.815414 1.800934 4.815414 1.41111 L 4.815414 0.7055588 C 4.815414 0.3157349 4.483894 0 4.074585 0 L 4.074585 0 Z M 2.222496 0.7055588 L 2.222496 1.41111 C 2.222496 1.800934 1.890976 2.116669 1.481667 2.116669 L 0.7408295 2.116669 C 0.3315201 2.116669 1.703974e-8 1.800934 0 1.41111 L 0 0.7055588 C -1.703974e-8 0.3157349 0.3315201 0 0.7408295 0 L 1.481667 0 C 1.890976 0 2.222496 0.3157349 2.222496 0.7055588 Z" fill-rule="evenodd" fill="#FFFFFF" fill-opacity="1" stroke="none" stroke-opacity="1" stroke-width="0.3527778" stroke-linecap="butt" stroke-linejoin="miter"/>
</defs>
<g>
<g>
<g>
<use xlink:href="#path_a91e49dc5d7871efe1a31e10fdef00f2"/>
</g>
</g>
</g>
</svg>